<svg xmlns="http://www.w3.org/2000/svg" width="398" height="326" fill="none" xmlns:v="https://vecta.io/nano"><path d="M28.97 93.12c-5.291 0-9.941-.555-13.952-1.664s-6.869-2.347-8.576-3.712c-4.267-3.328-6.4-7.168-6.4-11.52 0-3.669 1.579-7.339 4.736-11.008 3.243-3.755 8.149-7.168 14.72-10.24 6.571-3.157 14.848-5.632 24.832-7.424a162.4 162.4 0 0 1 12.928-1.792c4.437-.427 8.875-.64 13.312-.64 3.755 0 7.509.171 11.264.512 3.84.341 7.595.896 11.264 1.664 1.195.256 2.56.597 4.096 1.024 1.536.341 3.115.768 4.737 1.28l20.736-21.632c6.741-7.168 13.269-13.227 19.584-18.176 4.437-3.499 8.576-5.888 12.416-7.168s7.253-1.92 10.24-1.92c3.498 0 6.357.555 8.576 1.664 2.304 1.024 3.797 1.877 4.48 2.56.256.256.256.512 0 .768s-.512.256-.768 0c-.427-.512-1.451-1.067-3.072-1.664s-3.712-.896-6.272-.896c-3.158 0-6.87.725-11.136 2.176s-9.003 4.181-14.208 8.192c-6.4 5.035-12.758 10.837-19.072 17.408l-19.072 19.584c3.328 1.195 6.357 2.816 9.088 4.864 2.816 2.048 4.437 4.565 4.863 7.552v.512c0 .341-.085.512-.255.512-.256 0-.512-.256-.768-.768-.342-.939-1.323-1.749-2.944-2.432-1.536-.683-3.328-1.237-5.376-1.664s-4.011-.768-5.888-1.024-3.286-.427-4.224-.512l-1.408-.128c-7.083 6.827-14.421 13.141-22.016 18.944-7.509 5.717-15.488 10.027-23.936 12.928-4.011 1.365-7.936 2.347-11.776 2.944-3.755.597-7.339.896-10.752.896zm98.945 6.272c-3.84-2.731-6.656-6.016-8.449-9.856s-2.687-7.979-2.687-12.416.768-8.875 2.304-13.312c1.536-4.523 3.754-9.216 6.656-14.08 2.986-4.864 6.229-9.6 9.727-14.208 3.499-4.693 6.87-8.96 10.112-12.8l8.321-9.728c2.304-2.56 3.669-4.139 4.095-4.736.513-.683.897-1.024 1.153-1.024.341 0 .597.299.767.896.171.512.257 1.109.257 1.792 0 1.365-.214 2.347-.64 2.944-2.219 2.816-4.864 6.4-7.936 10.752s-6.187 9.216-9.344 14.592c-3.158 5.291-6.102 10.752-8.832 16.384s-4.95 11.136-6.656 16.512c-1.622 5.376-2.432 10.283-2.432 14.72 0 2.56.341 4.907 1.024 7.04s1.792 4.011 3.328 5.632c.085.085.128.213.128.384s-.086.341-.256.512-.384.171-.64 0zm-98.56-8.448c3.157 0 6.571-.299 10.24-.896 3.669-.512 7.467-1.365 11.392-2.56 7.339-2.304 14.635-6.229 21.888-11.776s14.379-11.733 21.376-18.56c-1.109-.085-2.219-.128-3.328-.128h-3.456c-5.973 0-12.203.299-18.688.896-6.4.597-12.501 1.451-18.304 2.56-9.387 1.621-17.067 3.669-23.04 6.144-5.888 2.389-10.24 4.907-13.056 7.552-2.731 2.645-4.096 5.163-4.096 7.552 0 2.304 1.152 4.309 3.456 6.016 1.195.853 3.157 1.579 5.888 2.176 2.731.683 5.973 1.024 9.728 1.024zm129.699-2.816c-3.669 0-6.144-.683-7.424-2.048-1.28-1.451-1.92-3.029-1.92-4.736 0-2.219.854-4.565 2.56-7.04l3.456-4.864 3.584-5.248 2.304-3.456c.598-.853.939-1.408 1.024-1.664.171-.341.256-.683.256-1.024 0-.512-.341-.981-1.024-1.408-.597-.512-1.621-.768-3.072-.768-.426 0-.81.043-1.152.128h-.896c-.682 0-1.066-.043-1.152-.128l-.384.512c-2.389 3.157-4.949 6.272-7.68 9.344a75.43 75.43 0 0 1-8.96 8.32c-.341.256-.597.384-.768.384-.341 0-.512-.171-.512-.512 0-.683.512-1.451 1.536-2.304 2.646-2.219 5.248-4.693 7.808-7.424a74.84 74.84 0 0 0 6.912-8.832c-.768-.512-1.152-1.536-1.152-3.072 0-2.304.726-4.779 2.176-7.424 1.024-1.792 2.134-3.115 3.328-3.968 1.28-.939 2.39-1.408 3.328-1.408 1.792 0 2.688 1.067 2.688 3.2 0 1.365-.512 3.072-1.536 5.12-.426 1.024-1.28 2.347-2.56 3.968-1.194 1.536-2.389 2.645-3.584 3.328 1.792-.597 4.054-.981 6.784-1.152 2.816-.256 5.163-.384 7.04-.384 1.11 0 2.475.341 4.096 1.024 1.622.597 2.432 1.707 2.432 3.328 0 1.109-.512 2.304-1.536 3.584-.256.341-.938 1.152-2.048 2.432s-2.346 2.816-3.712 4.608c-1.28 1.792-2.474 3.584-3.584 5.376-1.109 1.621-2.005 3.115-2.688 4.48-.597 1.365-.896 2.517-.896 3.456 0 1.365.768 2.048 2.304 2.048 1.792 0 4.182-.853 7.168-2.56s6.187-3.883 9.6-6.528c3.499-2.731 6.699-5.547 9.6-8.448.342-.341.64-.512.896-.512.342 0 .512.213.512.64 0 .512-.213.981-.64 1.408-2.986 2.987-6.314 6.059-9.984 9.216-3.584 3.072-7.338 5.675-11.264 7.808-3.84 2.133-7.594 3.2-11.264 3.2zm41.387 1.024c-3.328 0-5.846-.811-7.552-2.432-1.622-1.707-2.432-3.883-2.432-6.528a17.6 17.6 0 0 1 .64-4.736c.426-1.536.896-2.901 1.408-4.096-.598.597-1.195 1.152-1.792 1.664a33.43 33.43 0 0 1-1.28 1.024c-.342.256-.64.384-.896.384-.342 0-.512-.213-.512-.64 0-.597.426-1.28 1.28-2.048 2.986-2.475 5.333-4.651 7.04-6.528 1.706-1.963 3.498-3.755 5.376-5.376 3.157-2.731 6.528-4.864 10.112-6.4s7.168-2.304 10.752-2.304c3.754 0 6.698.896 8.832 2.688s3.2 4.437 3.2 7.936c0 1.963-.598 4.224-1.792 6.784-1.11 2.56-2.902 5.205-5.376 7.936a43.21 43.21 0 0 1-3.456 3.328c-1.28 1.024-2.39 1.792-3.328 2.304 4.181-.427 8.106-1.877 11.776-4.352 3.669-2.56 6.954-5.077 9.856-7.552.426-.256.725-.384.896-.384.426 0 .64.213.64.64 0 .341-.214.725-.64 1.152-3.67 3.499-7.638 6.443-11.904 8.832-4.182 2.389-8.832 3.541-13.952 3.456-2.987 1.621-5.931 2.901-8.832 3.84-2.816.939-5.504 1.408-8.064 1.408zm5.76-3.584c1.194 0 2.474-.213 3.84-.64a27.55 27.55 0 0 0 4.096-1.664c-.512 0-1.024-.256-1.536-.768-.427-.512-.64-1.195-.64-2.048 0-1.707.64-3.456 1.92-5.248a18.71 18.71 0 0 1 4.736-4.608c1.877-1.28 3.712-1.92 5.504-1.92 1.024 0 1.962.299 2.816.896.938.512 1.45 1.237 1.536 2.176 1.45-1.621 2.432-3.371 2.944-5.248.597-1.877.896-3.627.896-5.248 0-2.219-.726-3.883-2.176-4.992-1.366-1.195-3.243-1.792-5.632-1.792-2.304 0-4.864.811-7.68 2.432-2.731 1.621-5.334 3.712-7.808 6.272-2.39 2.56-4.395 5.333-6.016 8.32-1.536 2.987-2.304 5.845-2.304 8.576 0 3.669 1.834 5.504 5.504 5.504zm78.261 7.424c-1.11-.427-2.219-1.195-3.328-2.304-1.024-1.109-1.536-3.029-1.536-5.76 0-2.304.384-4.693 1.152-7.168.768-2.56 1.749-5.077 2.944-7.552-2.219 2.816-4.651 5.589-7.296 8.32-2.56 2.731-5.163 4.992-7.808 6.784-2.56 1.707-4.95 2.56-7.168 2.56-1.878 0-3.456-.512-4.736-1.536-1.195-1.024-1.792-2.603-1.792-4.736 0-1.536.298-3.2.896-4.992s1.664-3.797 3.2-6.016 3.2-4.395 4.992-6.528l4.864-5.632c.938-1.109 1.408-2.005 1.408-2.688 0-.853-.47-1.28-1.408-1.28-1.024 0-2.475.683-4.352 2.048-1.963 1.451-4.054 3.243-6.272 5.376-2.219 2.048-4.31 4.053-6.272 6.016-1.963 1.877-3.627 3.371-4.992 4.48-.256.256-.512.384-.768.384-.427 0-.641-.256-.641-.768 0-.427.384-.981 1.153-1.664 3.754-3.243 6.869-6.187 9.344-8.832 2.474-2.731 4.906-5.035 7.296-6.912 1.28-1.024 2.602-1.749 3.968-2.176 1.365-.512 2.645-.768 3.84-.768 2.048 0 3.754.597 5.12 1.792s2.048 2.859 2.048 4.992c0 1.621-.427 3.328-1.28 5.12-.939 2.133-2.219 4.267-3.84 6.4l-4.48 6.016c-1.11 1.621-1.92 2.944-2.432 3.968s-.768 1.792-.768 2.304c0 .683.341 1.024 1.024 1.024s1.664-.384 2.944-1.152 2.602-1.749 3.968-2.944a72.28 72.28 0 0 0 2.432-2.304l1.664-1.664a150.89 150.89 0 0 0 5.888-6.528c1.962-2.389 3.669-4.565 5.12-6.528l2.56-3.328 2.176-2.432c1.45-1.621 2.986-2.475 4.608-2.56.938 0 2.005.213 3.2.64 1.28.341 2.517 1.067 3.712 2.176-.854 1.195-2.134 2.859-3.84 4.992l-5.376 6.912a175.82 175.82 0 0 0-5.504 7.68c-1.707 2.645-3.115 5.12-4.224 7.424s-1.664 4.309-1.664 6.016c0 1.195.341 2.133 1.024 2.816.341.341.341.512 0 .512-.342.085-.598.085-.768 0zm24.317-4.352c-.853 0-1.877-.213-3.072-.64-1.194-.341-2.389-1.024-3.584-2.048.939-1.28 2.304-2.987 4.096-5.12l5.504-7.296c1.963-2.645 3.798-5.291 5.504-7.936a229.31 229.31 0 0 1-4.48 4.352c-1.621 1.536-3.242 2.944-4.864 4.224-.341.341-.725.512-1.152.512-.341 0-.512-.171-.512-.512 0-.427.342-.939 1.024-1.536l7.936-7.296c2.987-2.816 5.163-5.675 6.528-8.576.427-1.024.64-1.963.64-2.816 0-1.109-.213-1.792-.64-2.048-.341-.256-.512-.597-.512-1.024 0-.768.384-1.152 1.152-1.152.427 0 .768.085 1.024.256.939.427 1.835 1.237 2.688 2.432s1.28 2.987 1.28 5.376c0 1.365-.17 2.944-.512 4.736-.341 1.707-.938 3.669-1.792 5.888l3.84-4.992 3.712-4.352c2.304-2.645 4.608-4.523 6.912-5.632 2.39-1.195 4.523-1.792 6.4-1.792 2.219 0 4.011.64 5.376 1.92s2.048 2.944 2.048 4.992c0 1.621-.426 3.285-1.28 4.992-.256.683-.853 1.749-1.792 3.2l-3.072 4.48-3.072 4.352c-1.109 1.365-1.877 2.56-2.304 3.584-.426.939-.64 1.707-.64 2.304 0 .853.47 1.28 1.408 1.28 1.195 0 2.859-.64 4.992-1.92 1.28-.768 2.731-1.792 4.352-3.072l4.992-4.096c1.707-1.451 3.072-2.645 4.096-3.584.342-.341.64-.512.896-.512.342 0 .512.213.512.64 0 .512-.213.981-.64 1.408-2.56 2.389-5.546 4.992-8.96 7.808-3.328 2.816-6.613 4.992-9.856 6.528-2.645 1.28-5.077 1.92-7.296 1.92-1.877 0-3.37-.469-4.48-1.408-1.109-1.024-1.664-2.475-1.664-4.352 0-1.365.342-2.987 1.024-4.864.854-2.304 2.048-4.608 3.584-6.912a101.32 101.32 0 0 1 4.992-6.528l4.608-5.376c1.11-1.195 1.664-2.219 1.664-3.072 0-.768-.512-1.152-1.536-1.152s-2.56.597-4.608 1.792c-1.962 1.109-4.181 2.944-6.656 5.504-3.498 3.669-6.57 7.637-9.216 11.904a82.35 82.35 0 0 1-9.088 12.032c-1.877 2.133-3.712 3.2-5.504 3.2zm-58.783 116.616c-3.499 0-7.382-.811-11.648-2.432-4.864-1.963-9.003-4.608-12.416-7.936a361.85 361.85 0 0 1-9.984-9.856c-1.878.427-3.627.768-5.248 1.024l-4.096.64a59.25 59.25 0 0 1-6.528.384c-7.766 0-14.08-1.408-18.944-4.224-4.779-2.901-7.168-6.571-7.168-11.008 0-3.499 1.621-7.253 4.864-11.264 3.328-4.096 8.746-8.235 16.256-12.416l7.936-4.096c.853-3.669 2.176-7.723 3.968-12.16 1.792-4.523 4.608-9.045 8.448-13.568 3.84-4.608 9.216-8.789 16.128-12.544 3.498-1.963 6.784-3.371 9.856-4.224s5.888-1.28 8.448-1.28c4.096 0 7.296.981 9.6 2.944 2.389 1.877 3.584 4.267 3.584 7.168 0 2.304-.811 4.821-2.432 7.552-1.622 2.645-4.267 5.291-7.936 7.936-1.536 1.109-3.883 2.517-7.04 4.224s-6.614 3.456-10.368 5.248l-10.88 5.12-8.576 3.968-3.328 1.536-.256 2.176v2.176c0 2.645.256 5.248.768 7.808 4.266-2.133 8.533-3.84 12.8-5.12s8.405-2.219 12.416-2.816c1.877-.341 3.754-.597 5.632-.768a60.67 60.67 0 0 1 5.504-.256c3.84 0 7.082.597 9.728 1.792 2.645 1.109 3.968 3.243 3.968 6.4 0 2.816-1.238 5.504-3.712 8.064-2.39 2.56-5.59 4.949-9.6 7.168-3.926 2.219-8.192 4.224-12.8 6.016s-9.131 3.285-13.568 4.48c2.56 3.584 5.461 6.699 8.704 9.344 3.242 2.731 6.613 4.821 10.112 6.272 2.389.939 4.522 1.621 6.4 2.048 1.962.427 3.626.64 4.992.64 2.389 0 4.138-.469 5.248-1.408s1.664-2.048 1.664-3.328c0-2.048-1.238-4.139-3.712-6.272-2.475-2.048-5.974-3.072-10.496-3.072-.598 0-1.195.043-1.792.128-.598 0-1.238.043-1.92.128h-.384c-.427 0-.64-.085-.64-.256 0-.256.213-.555.64-.896.512-.341 1.066-.555 1.664-.64 1.194-.171 2.346-.299 3.456-.384s2.176-.128 3.2-.128c5.034 0 8.704.939 11.008 2.816 2.389 1.792 3.584 3.883 3.584 6.272 0 2.645-1.323 5.12-3.968 7.424s-6.358 3.456-11.136 3.456zm-36.736-65.28l6.784-2.688c3.072-1.195 6.442-2.603 10.112-4.224 3.754-1.621 7.509-3.413 11.264-5.376s7.082-4.011 9.984-6.144c3.584-2.56 6.186-4.949 7.808-7.168 1.706-2.304 2.56-4.267 2.56-5.888 0-2.987-2.176-4.48-6.528-4.48-2.134 0-4.694.469-7.68 1.408-2.902.853-6.23 2.347-9.985 4.48-7.423 4.011-13.055 8.704-16.895 14.08s-6.315 10.709-7.424 16zm-12.544 44.672c2.133 0 4.394-.128 6.784-.384 1.109-.171 2.218-.299 3.328-.384 1.109-.171 2.218-.384 3.328-.64-2.134-2.475-4.054-5.035-5.76-7.68-1.622-2.645-2.902-5.419-3.84-8.32l-3.712 1.92c-1.11.597-2.048 1.237-2.816 1.92-.427.341-.726.597-.896.768s-.256.171-.256 0c0-1.109.554-2.304 1.664-3.584 1.109-1.365 2.645-2.773 4.608-4.224l.256-.128c-.512-2.048-.896-4.096-1.152-6.144a49.04 49.04 0 0 1-.128-6.144l-4.352 2.432c-4.694 2.901-8.448 6.144-11.264 9.728s-4.224 6.997-4.224 10.24c0 2.987 1.45 5.504 4.352 7.552s7.594 3.072 14.08 3.072zm21.376-3.328c3.669-.853 7.296-2.176 10.88-3.968s6.826-3.797 9.728-6.016 5.205-4.395 6.912-6.528c1.792-2.219 2.688-4.096 2.688-5.632 0-1.109-.555-2.005-1.664-2.688-1.024-.683-2.688-1.024-4.992-1.024-.683 0-1.494.043-2.432.128a43.17 43.17 0 0 0-2.816.384c-3.499.597-7.638 1.536-12.416 2.816s-9.43 2.773-13.952 4.48c1.536 6.656 4.224 12.672 8.064 18.048zM51.714 236.856c-.512 0-1.067-.213-1.664-.64-1.536-1.451-2.304-3.285-2.304-5.504 0-2.645 1.109-5.376 3.328-8.192 2.304-2.901 5.675-5.205 10.112-6.912 5.035-1.963 10.496-3.584 16.384-4.864 5.888-1.365 11.904-2.347 18.048-2.944 6.229-.683 12.203-1.024 17.92-1.024 2.133 0 4.224.043 6.272.128s4.011.213 5.888.384c12.544 1.195 22.101 3.584 28.672 7.168 6.656 3.584 9.984 7.339 9.984 11.264 0 1.621-.555 3.157-1.664 4.608-.512.683-1.28 1.365-2.304 2.048-.939.597-1.707.896-2.304.896-.512 0-.768-.256-.768-.768 0-.597.427-1.579 1.28-2.944 1.024-1.536 1.536-2.944 1.536-4.224 0-2.475-1.579-4.395-4.736-5.76-3.072-1.451-7.125-2.432-12.16-2.944-4.949-.597-10.283-.896-16-.896-3.925 0-7.893.128-11.904.384-4.011.171-7.765.427-11.264.768-1.621.171-4.096.469-7.424.896a327.84 327.84 0 0 0-11.008 1.664c-4.096.597-8.235 1.365-12.416 2.304-4.181.853-8.021 1.835-11.52 2.944s-6.357 2.347-8.576 3.712c-2.133 1.28-3.2 2.731-3.2 4.352 0 1.109.64 2.261 1.92 3.456.171.171.256.299.256.384 0 .171-.128.256-.384.256zm35.2 64.512c-4.437-.341-7.467-1.749-9.088-4.224s-2.432-5.376-2.432-8.704c0-2.816.384-5.717 1.152-8.704s1.579-5.717 2.432-8.192c.853-2.389 1.963-4.907 3.328-7.552 1.451-2.645 3.371-5.803 5.76-9.472l9.6-13.824 14.592-20.608c1.024-1.28 1.92-1.92 2.688-1.92.512 0 .853.213 1.024.64.256.341.299.683.128 1.024-8.021 11.861-14.208 22.059-18.56 30.592-4.267 8.448-7.424 15.659-9.472 21.632-.427 1.195-.981 2.901-1.664 5.12-.597 2.133-1.152 4.48-1.664 7.04-.512 2.475-.768 4.821-.768 7.04 0 2.389.427 4.437 1.28 6.144s2.347 2.56 4.48 2.56c1.28 0 2.475-.427 3.584-1.28.427-.256.683-.384.768-.384.171 0 .256.085.256.256 0 .256-.256.597-.768 1.024-1.621 1.451-3.84 2.048-6.656 1.792zm51.535-49.536c-1.195 0-2.091-.384-2.688-1.152s-.896-1.579-.896-2.432c0-1.707.811-3.371 2.432-4.992 1.621-1.707 3.328-2.56 5.12-2.56 1.195 0 2.091.384 2.688 1.152s.896 1.579.896 2.432c0 1.792-.811 3.499-2.432 5.12-1.536 1.621-3.243 2.432-5.12 2.432zm-19.584 39.296c-3.499 0-5.888-.725-7.168-2.176-1.195-1.536-1.792-3.243-1.792-5.12a12.29 12.29 0 0 1 .768-4.352c.512-1.451.939-2.475 1.28-3.072.512-.853 1.195-1.835 2.048-2.944l3.072-3.584-4.864 4.224c-1.451 1.365-2.645 2.389-3.584 3.072-.256.256-.512.384-.768.384-.341 0-.512-.213-.512-.64 0-.683.469-1.365 1.408-2.048 2.219-1.877 4.352-3.925 6.4-6.144l6.016-6.144c1.877-1.963 3.541-3.328 4.992-4.096 1.536-.853 2.773-1.408 3.712-1.664s1.707-.384 2.304-.384c.939 0 1.621.171 2.048.512.427.256.512.555.256.896-1.451 1.451-2.901 3.328-4.352 5.632-1.365 2.219-2.645 4.565-3.84 7.04s-2.176 4.821-2.944 7.04c-.683 2.219-1.024 4.096-1.024 5.632 0 2.133.853 3.2 2.56 3.2 1.621 0 3.712-.725 6.272-2.176 2.645-1.536 5.376-3.456 8.192-5.76 2.901-2.304 5.589-4.565 8.064-6.784.341-.341.64-.512.896-.512.427 0 .64.213.64.64.085.427 0 .725-.256.896-2.816 2.645-6.016 5.419-9.6 8.32-3.499 2.816-7.04 5.205-10.624 7.168-3.499 1.963-6.699 2.944-9.6 2.944zm33.247 11.264c-1.792-1.451-3.029-3.157-3.712-5.12-.683-1.877-1.024-3.755-1.024-5.632 0-3.157.683-7.211 2.048-12.16 1.451-4.949 3.371-10.155 5.76-15.616a1.14 1.14 0 0 1-.512.128c-.427 0-.896-.469-1.408-1.408-.427-1.024-.64-2.091-.64-3.2 0-1.195.384-2.389 1.152-3.584.853-1.195 2.475-2.091 4.864-2.688.512-.171 1.195-.341 2.048-.512 2.731-5.12 5.675-9.771 8.832-13.952 3.157-4.267 6.315-7.467 9.472-9.6 1.963-1.365 4.011-2.347 6.144-2.944 2.219-.683 4.395-1.024 6.528-1.024 2.56 0 5.077.469 7.552 1.408s4.523 2.347 6.144 4.224c1.621 1.792 2.432 4.053 2.432 6.784v.128c0 .341-.128.512-.384.512s-.469-.213-.64-.64c-.597-2.304-1.749-3.925-3.456-4.864-1.707-1.024-3.584-1.536-5.632-1.536-1.621 0-3.243.256-4.864.768s-3.029 1.152-4.224 1.92c-3.072 1.963-6.144 4.693-9.216 8.192-3.072 3.413-5.845 6.827-8.32 10.24 2.304.171 4.352.555 6.144 1.152 1.877.597 3.243 1.237 4.096 1.92 1.195.853 2.091 1.749 2.688 2.688.341.597.512 1.109.512 1.536 0 .512-.213.768-.64.768-.256 0-.64-.128-1.152-.384-1.536-1.024-3.925-1.536-7.168-1.536-1.365 0-2.859.128-4.48.384-1.621.171-3.328.512-5.12 1.024l-1.664 2.432a85.63 85.63 0 0 0-7.04 12.416c-1.963 4.181-3.456 8.149-4.48 11.904s-1.536 6.997-1.536 9.728c0 2.389.512 4.224 1.536 5.504.256.341.256.555 0 .64-.256.171-.469.171-.64 0zm30.592 0c-1.792-1.451-3.029-3.157-3.712-5.12-.683-1.877-1.024-3.755-1.024-5.632 0-3.157.683-7.211 2.048-12.16 1.451-4.949 3.371-10.155 5.76-15.616a1.14 1.14 0 0 1-.512.128c-.427 0-.896-.469-1.408-1.408-.427-1.024-.64-2.091-.64-3.2 0-1.195.384-2.389 1.152-3.584.853-1.195 2.475-2.091 4.864-2.688.512-.171 1.195-.341 2.048-.512 2.731-5.12 5.675-9.771 8.832-13.952 3.157-4.267 6.315-7.467 9.472-9.6 1.963-1.365 4.011-2.347 6.144-2.944 2.219-.683 4.395-1.024 6.528-1.024 2.56 0 5.077.469 7.552 1.408s4.523 2.347 6.144 4.224c1.621 1.792 2.432 4.053 2.432 6.784v.128c0 .341-.128.512-.384.512s-.469-.213-.64-.64c-.597-2.304-1.749-3.925-3.456-4.864-1.707-1.024-3.584-1.536-5.632-1.536-1.621 0-3.243.256-4.864.768s-3.029 1.152-4.224 1.92c-3.072 1.963-6.144 4.693-9.216 8.192-3.072 3.413-5.845 6.827-8.32 10.24 2.304.171 4.352.555 6.144 1.152 1.877.597 3.243 1.237 4.096 1.92 1.195.853 2.091 1.749 2.688 2.688.341.597.512 1.109.512 1.536 0 .512-.213.768-.64.768-.256 0-.64-.128-1.152-.384-1.536-1.024-3.925-1.536-7.168-1.536-1.365 0-2.859.128-4.48.384-1.621.171-3.328.512-5.12 1.024l-1.664 2.432a85.63 85.63 0 0 0-7.04 12.416c-1.963 4.181-3.456 8.149-4.48 11.904s-1.536 6.997-1.536 9.728c0 2.389.512 4.224 1.536 5.504.256.341.256.555 0 .64-.256.171-.469.171-.64 0zm37.701-11.264c-2.645 0-4.693-.811-6.144-2.432-1.451-1.707-2.176-3.883-2.176-6.528 0-2.475.64-5.205 1.92-8.192 1.365-2.987 3.499-6.016 6.4-9.088 2.987-3.243 6.699-5.845 11.136-7.808 4.437-2.048 8.661-3.072 12.672-3.072 3.243 0 6.016.725 8.32 2.176 2.304 1.365 3.84 3.115 4.608 5.248.939 0 2.091.256 3.456.768 1.451.512 2.176 1.451 2.176 2.816 0 .939-.469 2.005-1.408 3.2-.597.853-1.664 2.133-3.2 3.84a54.15 54.15 0 0 0-4.096 5.504c-1.024 1.536-1.835 2.987-2.432 4.352-.597 1.28-.896 2.389-.896 3.328 0 1.28.64 1.92 1.92 1.92 1.451 0 3.627-.811 6.528-2.432 3.157-1.792 6.187-3.84 9.088-6.144l6.784-5.504c.427-.341.725-.512.896-.512.341 0 .512.213.512.64 0 .512-.213.981-.64 1.408-.768.683-2.261 1.963-4.48 3.84s-4.779 3.84-7.68 5.888c-2.816 2.048-5.589 3.712-8.32 4.992-1.365.597-2.645 1.067-3.84 1.408-1.109.256-2.133.384-3.072.384-2.304 0-4.053-.64-5.248-1.92-1.195-1.365-1.792-3.115-1.792-5.248a10.22 10.22 0 0 1 .384-2.688 35.95 35.95 0 0 1 .896-2.816l.896-2.176c-2.219 2.731-4.437 5.035-6.656 6.912-2.219 1.792-4.437 3.371-6.656 4.736-1.877 1.109-3.669 1.92-5.376 2.432-1.621.512-3.115.768-4.48.768zm3.968-3.328c1.536 0 3.755-.896 6.656-2.688 2.901-1.877 6.272-4.736 10.112-8.576a143.7 143.7 0 0 1 2.816-2.688c1.451-1.365 2.987-2.859 4.608-4.48 1.621-1.707 2.987-3.371 4.096-4.992 1.195-1.707 1.792-3.115 1.792-4.224 0-1.621-1.408-2.432-4.224-2.432-2.475 0-5.461.981-8.96 2.944-3.413 1.877-6.699 4.693-9.856 8.448-3.243 3.84-5.632 7.168-7.168 9.984-1.451 2.731-2.176 4.821-2.176 6.272 0 1.621.768 2.432 2.304 2.432zm53.707 3.84c-.853 0-1.877-.213-3.072-.64-1.195-.341-2.389-1.024-3.584-2.048.939-1.28 2.304-2.987 4.096-5.12l5.504-7.296c1.963-2.645 3.797-5.291 5.504-7.936-1.365 1.365-2.859 2.816-4.48 4.352s-3.243 2.944-4.864 4.224c-.341.341-.725.512-1.152.512-.341 0-.512-.171-.512-.512 0-.427.341-.939 1.024-1.536l7.936-7.296c2.987-2.816 5.163-5.675 6.528-8.576.427-1.024.64-1.963.64-2.816 0-1.109-.213-1.792-.64-2.048-.341-.256-.512-.597-.512-1.024 0-.768.384-1.152 1.152-1.152.427 0 .768.085 1.024.256.939.427 1.835 1.237 2.688 2.432s1.28 2.987 1.28 5.376c0 1.365-.171 2.944-.512 4.736-.341 1.707-.939 3.669-1.792 5.888l3.84-4.992 3.712-4.352c2.304-2.645 4.608-4.523 6.912-5.632 2.389-1.195 4.523-1.792 6.4-1.792 2.219 0 4.011.64 5.376 1.92s2.048 2.944 2.048 4.992c0 1.621-.427 3.285-1.28 4.992-.256.683-.853 1.749-1.792 3.2l-3.072 4.48-3.072 4.352c-1.109 1.365-1.877 2.56-2.304 3.584-.427.939-.64 1.707-.64 2.304 0 .853.469 1.28 1.408 1.28 1.195 0 2.859-.64 4.992-1.92 1.28-.768 2.731-1.792 4.352-3.072l4.992-4.096 4.096-3.584c.341-.341.64-.512.896-.512.341 0 .512.213.512.64 0 .512-.213.981-.64 1.408-2.56 2.389-5.547 4.992-8.96 7.808-3.328 2.816-6.613 4.992-9.856 6.528-2.645 1.28-5.077 1.92-7.296 1.92-1.877 0-3.371-.469-4.48-1.408-1.109-1.024-1.664-2.475-1.664-4.352 0-1.365.341-2.987 1.024-4.864.853-2.304 2.048-4.608 3.584-6.912a100.6 100.6 0 0 1 4.992-6.528l4.608-5.376c1.109-1.195 1.664-2.219 1.664-3.072 0-.768-.512-1.152-1.536-1.152s-2.56.597-4.608 1.792c-1.963 1.109-4.181 2.944-6.656 5.504a72.74 72.74 0 0 0-9.216 11.904c-2.645 4.267-5.675 8.277-9.088 12.032-1.877 2.133-3.712 3.2-5.504 3.2zm47.291 33.792c-4.096 0-7.851-.64-11.264-1.92-3.499-1.195-6.4-3.115-8.704-5.76s-3.84-6.187-4.608-10.624c-.171-.683 0-1.024.512-1.024.341 0 .597.299.768.896.939 4.779 3.285 8.661 7.04 11.648 3.669 2.987 7.893 4.48 12.672 4.48 4.437 0 8.917-1.195 13.44-3.584 4.523-2.304 8.917-5.504 13.184-9.6 4.267-4.011 8.277-8.576 12.032-13.696 4.011-5.461 7.637-11.136 10.88-17.024a512.88 512.88 0 0 0 9.6-17.792l-3.456 4.992c-1.195 1.707-2.389 3.285-3.584 4.736-2.304 2.901-4.949 5.888-7.936 8.96-2.901 2.987-5.803 5.547-8.704 7.68-2.901 2.048-5.547 3.072-7.936 3.072-1.877 0-3.456-.512-4.736-1.536-1.195-1.024-1.792-2.603-1.792-4.736 0-1.877.341-3.584 1.024-5.12a31.57 31.57 0 0 1 2.304-4.48c1.451-2.389 3.2-4.821 5.248-7.296s3.84-4.565 5.376-6.272c.939-1.109 1.408-2.005 1.408-2.688 0-.853-.469-1.28-1.408-1.28-1.109 0-2.517.683-4.224 2.048-2.048 1.451-4.139 3.2-6.272 5.248l-6.016 5.632c-1.877 1.792-3.413 3.2-4.608 4.224-.597.427-1.024.64-1.28.64-.341 0-.512-.171-.512-.512 0-.512.299-1.024.896-1.536 1.707-1.451 3.499-3.157 5.376-5.12l5.76-5.76c1.963-1.963 3.755-3.541 5.376-4.736 1.28-1.024 2.603-1.749 3.968-2.176 1.365-.512 2.645-.768 3.84-.768 2.048 0 3.755.597 5.12 1.792 1.451 1.195 2.176 2.859 2.176 4.992 0 1.621-.427 3.328-1.28 5.12-1.024 2.133-2.347 4.267-3.968 6.4l-4.48 6.016c-1.109 1.621-1.92 2.944-2.432 3.968s-.768 1.749-.768 2.176c0 .768.341 1.152 1.024 1.152s1.664-.384 2.944-1.152c1.365-.768 2.731-1.749 4.096-2.944 2.304-2.133 4.821-4.736 7.552-7.808 2.816-3.157 5.547-6.443 8.192-9.856s4.949-6.571 6.912-9.472c1.195-2.816 2.475-5.291 3.84-7.424s3.115-3.2 5.248-3.2c1.195 0 2.133.341 2.816 1.024.768.683 1.152 1.365 1.152 2.048 0 .597-.256 1.109-.768 1.536-.512.341-1.365.469-2.56.384-.939-.171-2.005 0-3.2.512s-2.432 2.133-3.712 4.864c-1.365 3.072-2.688 6.656-3.968 10.752-1.195 4.096-2.645 8.491-4.352 13.184s-3.968 9.515-6.784 14.464c-2.731 5.035-6.4 9.984-11.008 14.848-4.523 4.779-9.899 8.875-16.128 12.288-6.144 3.413-12.587 5.12-19.328 5.12z" fill="#d6aa9d"/></svg>